<svg xmlns:xlink="http://www.w3.org/1999/xlink" width="81" id="svg-block" height="81" viewBox="0 0 81 81" fill="none" xmlns="http://www.w3.org/2000/svg">
                    <path d="M22.2897 28.8493C21.8596 29.3279 21.2813 29.6569 20.5546 29.8663C19.828 30.0757 18.8641 30.1804 17.6778 30.1804V33.1716H22.0672V53.7062H26.2639V26.7853H23.4464C23.1053 27.6827 22.7197 28.3707 22.2897 28.8493ZM35.2208 26.3965C33.1595 26.3965 31.5876 26.9798 30.4903 28.1613C29.3929 29.3428 28.8442 31.0029 28.8442 33.1566V47.305C28.8442 49.4587 29.3929 51.1188 30.4903 52.3004C31.5876 53.4819 33.1595 54.0652 35.2208 54.0652C37.2821 54.0652 38.854 53.4819 39.9513 52.3004C41.0487 51.1188 41.5974 49.4587 41.5974 47.305V33.1566C41.5974 31.0029 41.0487 29.3428 39.9513 28.1613C38.854 26.9947 37.2821 26.3965 35.2208 26.3965ZM37.3859 47.5892C37.3859 49.354 36.6592 50.2364 35.206 50.2364C33.7527 50.2364 33.0261 49.354 33.0261 47.5892V32.9024C33.0261 31.1376 33.7527 30.2551 35.206 30.2551C36.6592 30.2551 37.3859 31.1376 37.3859 32.9024V47.5892ZM50.4653 26.3965C48.404 26.3965 46.8321 26.9798 45.7348 28.1613C44.6374 29.3428 44.0887 31.0029 44.0887 33.1566V47.305C44.0887 49.4587 44.6374 51.1188 45.7348 52.3004C46.8321 53.4819 48.404 54.0652 50.4653 54.0652C52.5266 54.0652 54.0985 53.4819 55.1958 52.3004C56.2932 51.1188 56.8419 49.4587 56.8419 47.305V33.1566C56.8419 31.0029 56.2932 29.3428 55.1958 28.1613C54.0985 26.9947 52.5266 26.3965 50.4653 26.3965ZM52.6452 47.5892C52.6452 49.354 51.9186 50.2364 50.4653 50.2364C49.012 50.2364 48.2854 49.354 48.2854 47.5892V32.9024C48.2854 31.1376 49.012 30.2551 50.4653 30.2551C51.9186 30.2551 52.6452 31.1376 52.6452 32.9024V47.5892ZM68.8091 34.3531C68.4384 33.9642 67.9045 33.7549 67.2076 33.7549C66.4958 33.7549 65.9619 33.9493 65.606 34.3531C65.2353 34.7569 65.0573 35.3103 65.0573 36.0581V39.6475C65.0573 40.3804 65.2353 40.9487 65.606 41.3525C65.9767 41.7563 66.5106 41.9508 67.2076 41.9508C67.9194 41.9508 68.4532 41.7563 68.8091 41.3525C69.1798 40.9637 69.3578 40.3953 69.3578 39.6475V36.0581C69.3578 35.3252 69.1798 34.7569 68.8091 34.3531ZM67.9342 39.7522C67.9342 40.3505 67.6969 40.6496 67.2076 40.6496C66.7182 40.6496 66.4809 40.3505 66.4809 39.7522V35.9534C66.4809 35.3552 66.7182 35.056 67.2076 35.056C67.6969 35.056 67.9342 35.3552 67.9342 35.9534V39.7522ZM62.566 34.7719C62.9367 34.3681 63.1147 33.8147 63.1147 33.0669V29.4774C63.1147 28.7446 62.9367 28.1763 62.566 27.7724C62.1953 27.3836 61.6614 27.1742 60.9644 27.1742C60.2526 27.1742 59.7188 27.3686 59.3629 27.7724C58.9921 28.1763 58.8142 28.7296 58.8142 29.4774V33.0669C58.8142 33.7997 58.9921 34.3681 59.3629 34.7719C59.7336 35.1607 60.2675 35.3701 60.9644 35.3701C61.6614 35.3552 62.1953 35.1607 62.566 34.7719ZM60.223 33.1716V29.3727C60.223 28.7745 60.4602 28.4754 60.9496 28.4754C61.439 28.4754 61.6762 28.7745 61.6762 29.3727V33.1716C61.6762 33.7698 61.439 34.0689 60.9496 34.0689C60.4602 34.0689 60.223 33.7698 60.223 33.1716ZM66.125 27.3836L60.6085 41.7414H62.0321L67.5486 27.3836H66.125Z" fill="#BA0901"></path>
                    <path d="M35.3247 80.3427C35.1764 80.3427 35.043 80.3278 34.8947 80.3128C33.3673 80.0885 32.3885 78.8172 31.5284 77.6805C31.1132 77.1421 30.4904 76.3195 30.1493 76.2149C29.7934 76.1102 28.8443 76.4541 28.1473 76.6934C26.8275 77.172 25.3298 77.6955 23.9507 77.0674C22.5567 76.4242 21.9784 74.9286 21.4742 73.5975C21.2221 72.9544 20.8513 71.9823 20.5548 71.7879C20.2433 71.5934 19.2053 71.6383 18.5231 71.6832C17.1144 71.7579 15.5276 71.8477 14.3858 70.8456C13.2439 69.8436 13.0956 68.2433 12.977 66.8224C12.9177 66.1345 12.8287 65.0875 12.5914 64.8183C12.3542 64.5491 11.3458 64.3098 10.6784 64.1453C9.29933 63.8163 7.75708 63.4573 6.92664 62.1711C6.11103 60.8849 6.42244 59.3145 6.68937 57.9236C6.82284 57.2356 7.03045 56.2037 6.88215 55.8746C6.73386 55.5456 5.8441 55.0371 5.25093 54.6931C4.0201 53.9902 2.62615 53.1975 2.1961 51.7168C1.73639 50.2512 2.47786 48.8453 3.13034 47.589C3.47142 46.9309 3.94595 46.0335 3.88664 45.6596C3.84215 45.3157 3.13034 44.5679 2.65581 44.0893C1.66225 43.0573 0.550049 41.8907 0.550049 40.3353C0.550049 38.7799 1.66225 37.6133 2.65581 36.5963C3.13034 36.1027 3.84215 35.3699 3.88664 35.0259C3.94595 34.652 3.47142 33.7546 3.13034 33.0966C2.47786 31.8552 1.73639 30.4344 2.16644 28.9687C2.59649 27.4881 3.99044 26.6954 5.22127 25.9924C5.81444 25.6485 6.71903 25.14 6.86732 24.8109C7.01562 24.4669 6.82284 23.435 6.67454 22.7619C6.39279 21.371 6.08137 19.8006 6.91181 18.5144C7.74225 17.2282 9.29933 16.8543 10.6636 16.5402C11.3309 16.3757 12.3393 16.1514 12.5766 15.8672C12.8139 15.583 12.9028 14.5511 12.9622 13.8631C13.0808 12.4423 13.2291 10.842 14.3709 9.83992C15.5128 8.83786 17.1144 8.9276 18.5083 9.00238C19.1905 9.04725 20.2285 9.09211 20.5399 8.89769C20.8365 8.70326 21.2221 7.73111 21.4593 7.088C21.9784 5.75692 22.5567 4.26131 23.9358 3.6182C25.3001 2.97509 26.8127 3.51351 28.1325 3.9921C28.8295 4.24636 29.7637 4.59034 30.1196 4.4707C30.4607 4.366 31.0835 3.55838 31.4988 3.005C32.3589 1.86834 33.3524 0.59708 34.865 0.372739C36.3479 0.163355 37.6381 1.09063 38.7651 1.92817C39.3583 2.36189 40.1887 2.96014 40.5595 2.96014C40.9302 2.96014 41.7606 2.36189 42.3538 1.92817C43.4808 1.10559 44.771 0.178311 46.2539 0.372739C47.7813 0.59708 48.7601 1.86834 49.6201 3.005C50.0354 3.54342 50.6582 4.366 50.9993 4.4707C51.3552 4.57539 52.3043 4.2314 52.9864 3.9921C54.3062 3.51351 55.804 2.97509 57.1831 3.6182C58.577 4.26131 59.1554 5.75692 59.6596 7.088C59.9117 7.73111 60.2824 8.70326 60.579 8.89769C60.8904 9.10707 61.9285 9.04725 62.6106 9.00238C64.0194 8.9276 65.6061 8.83786 66.748 9.83992C67.8898 10.842 68.0381 12.4423 68.1568 13.8631C68.2161 14.5511 68.305 15.598 68.5423 15.8672C68.7796 16.1364 69.788 16.3757 70.4553 16.5402C71.8344 16.8693 73.3767 17.2282 74.2071 18.5144C75.0227 19.8006 74.7113 21.371 74.4444 22.7619C74.3109 23.4499 74.1033 24.4819 74.2516 24.8109C74.3999 25.14 75.2896 25.6485 75.8828 25.9924C77.1136 26.6954 78.5076 27.4881 78.9376 28.9687C79.3677 30.4344 78.6262 31.8403 77.9737 33.0966C77.6327 33.7546 77.1581 34.652 77.2174 35.0259C77.2619 35.3699 77.9737 36.1177 78.4483 36.5963C79.4418 37.6283 80.554 38.7799 80.554 40.3353C80.554 41.8907 79.4418 43.0573 78.4483 44.0893C77.9737 44.5828 77.2619 45.3157 77.2174 45.6596C77.1581 46.0335 77.6327 46.9309 77.9737 47.589C78.6262 48.8303 79.3677 50.2512 78.9376 51.7168C78.5076 53.1975 77.1136 53.9902 75.8828 54.6931C75.2896 55.0371 74.3999 55.5456 74.2516 55.8746C74.1033 56.2186 74.2961 57.2506 74.4444 57.9236C74.7261 59.3145 75.0375 60.8849 74.2071 62.1711C73.3767 63.4573 71.8344 63.8312 70.4553 64.1453C69.788 64.2949 68.7796 64.5342 68.5423 64.8183C68.305 65.1025 68.2161 66.1345 68.1568 66.8224C68.0381 68.2433 67.8898 69.8436 66.748 70.8456C65.6061 71.8477 64.0046 71.7579 62.6106 71.6832C61.9285 71.6383 60.8904 71.5934 60.579 71.7879C60.2824 71.9823 59.8968 72.9544 59.6596 73.5975C59.1405 74.9286 58.5622 76.4242 57.1831 77.0674C55.804 77.7105 54.3062 77.1571 52.9864 76.6934C52.2894 76.4392 51.3552 76.0952 50.9993 76.2149C50.6582 76.3195 50.0354 77.1272 49.6201 77.6805C48.7601 78.8172 47.7665 80.0885 46.2539 80.3128C44.771 80.5222 43.4808 79.5949 42.3538 78.7574C41.7606 78.3237 40.9302 77.7254 40.5595 77.7254C40.1739 77.7254 39.3583 78.3237 38.7651 78.7574C37.7716 79.5052 36.6297 80.3427 35.3247 80.3427ZM29.9862 73.2087C30.3124 73.2087 30.6535 73.2535 30.9797 73.3433C32.2402 73.7172 33.1003 74.8539 33.8714 75.841C34.257 76.3495 34.9836 77.2917 35.3099 77.3366C35.6213 77.3964 36.5407 76.6934 37.0449 76.3345C38.0681 75.5867 39.2397 74.7342 40.5891 74.7342C41.9386 74.7342 43.0953 75.5867 44.1333 76.3345C44.6375 76.6934 45.5569 77.3964 45.8683 77.3366C46.1946 77.2917 46.9212 76.3495 47.3068 75.841C48.0779 74.8389 48.938 73.7172 50.1985 73.3433C51.4738 72.9694 52.8233 73.448 54.0244 73.8817C54.6176 74.0911 55.715 74.4799 55.9967 74.3603C56.2933 74.2257 56.7234 73.1189 56.9458 72.5207C57.4055 71.3392 57.9245 70.0081 59.0219 69.2752C60.1341 68.5574 61.5726 68.6321 62.833 68.692C63.4559 68.7219 64.6274 68.7966 64.8646 68.5873C65.1019 68.3779 65.2057 67.1964 65.265 66.5682C65.3688 65.2969 65.5023 63.8761 66.3624 62.8591C67.2225 61.857 68.6165 61.528 69.8473 61.2289C70.4553 61.0793 71.612 60.8101 71.7751 60.5409C71.9382 60.2717 71.7158 59.1201 71.5971 58.5069C71.345 57.2655 71.0633 55.8447 71.6268 54.6183C72.1755 53.4069 73.4063 52.7039 74.5037 52.0758C75.0524 51.7617 76.0756 51.1784 76.1794 50.8494C76.2684 50.5503 75.7197 49.5183 75.4379 48.9649C74.8448 47.8283 74.1774 46.557 74.3702 45.211C74.5482 43.9098 75.5417 42.8778 76.4018 41.9805C76.8764 41.4869 77.6771 40.6643 77.6771 40.3203C77.6771 39.9763 76.8764 39.1538 76.4018 38.6602C75.5269 37.7629 74.5482 36.7309 74.3554 35.4297C74.1626 34.0986 74.8299 32.8124 75.4231 31.6757C75.7197 31.1224 76.2535 30.0904 76.1646 29.7913C76.0756 29.4772 75.0524 28.8939 74.4889 28.5798C73.3915 27.9517 72.1607 27.2488 71.612 26.0373C71.0633 24.8109 71.3451 23.4051 71.5823 22.1487C71.701 21.5355 71.9382 20.369 71.7603 20.1147C71.5823 19.8455 70.4405 19.5763 69.8325 19.4267C68.6016 19.1426 67.2225 18.8135 66.3476 17.8115C65.4726 16.7945 65.354 15.3737 65.2502 14.1024C65.2057 13.4593 65.1167 12.2927 64.8646 12.0833C64.6274 11.8739 63.4559 11.9338 62.833 11.9786C61.5726 12.0534 60.1489 12.1282 59.0367 11.4103C57.9245 10.6924 57.4055 9.34637 56.9606 8.16484C56.7382 7.5666 56.3082 6.45985 56.0116 6.32525C55.7298 6.19064 54.6324 6.59445 54.0393 6.80384C52.8529 7.22261 51.5035 7.71616 50.2133 7.34226C48.938 6.9534 48.0779 5.81674 47.3068 4.81469C46.9212 4.30618 46.1946 3.36395 45.8683 3.31908C45.5718 3.27421 44.6375 3.96219 44.1333 4.32114C43.1101 5.06894 41.9386 5.92143 40.5891 5.92143C39.2397 5.92143 38.083 5.06894 37.0449 4.32114C36.5407 3.96219 35.5916 3.27421 35.3099 3.31908C34.9836 3.36395 34.257 4.30618 33.8714 4.81469C33.1003 5.81674 32.2402 6.93844 30.9797 7.31235C29.7044 7.68625 28.355 7.20765 27.1538 6.77393C26.5606 6.56454 25.4632 6.17569 25.1815 6.29533C24.8849 6.42994 24.4549 7.53668 24.2324 8.13493C23.7727 9.31645 23.2537 10.6475 22.1415 11.3804C21.0293 12.1132 19.6057 12.0385 18.3452 11.9637C17.7224 11.9338 16.5508 11.859 16.3136 12.0684C16.0763 12.2927 15.9725 13.4593 15.9132 14.1024C15.8094 15.3737 15.6759 16.8094 14.8158 17.8115C13.9557 18.8135 12.5618 19.1426 11.3309 19.4267C10.7229 19.5763 9.56625 19.8455 9.40313 20.1147C9.24001 20.3839 9.46245 21.5355 9.58108 22.1487C9.83318 23.3901 10.1149 24.8109 9.55142 26.0373C9.00274 27.2488 7.77191 27.9517 6.67454 28.5798C6.12586 28.8939 5.10264 29.4772 4.99883 29.7913C4.90986 30.0904 5.45854 31.1224 5.7403 31.6757C6.33347 32.8124 7.00079 34.0837 6.80801 35.4297C6.63005 36.7309 5.63649 37.7629 4.77639 38.6602C4.31669 39.1687 3.51591 39.9913 3.51591 40.3353C3.51591 40.6793 4.31669 41.5019 4.79122 41.9954C5.66615 42.8928 6.64488 43.9247 6.82284 45.2259C7.01562 46.557 6.3483 47.8432 5.75513 48.9799C5.45854 49.5333 4.92469 50.5652 5.01366 50.8644C5.10264 51.1784 6.12586 51.7617 6.68937 52.0758C7.78674 52.7039 9.01757 53.4069 9.56625 54.6183C10.1149 55.8447 9.83318 57.2506 9.59591 58.5069C9.47728 59.135 9.24001 60.2867 9.41796 60.5559C9.59591 60.8251 10.7378 61.0943 11.3458 61.2438C12.5766 61.528 13.9557 61.857 14.8306 62.8741C15.7056 63.8761 15.8242 65.3119 15.928 66.5832C15.9873 67.2113 16.0763 68.3928 16.3284 68.6022C16.5657 68.8116 17.7372 68.7368 18.36 68.7069C19.6205 68.6321 21.0441 68.5574 22.1563 69.2752C23.2685 69.9931 23.7875 71.3392 24.2472 72.5207C24.4697 73.1189 24.8997 74.2257 25.1963 74.3603C25.4781 74.4949 26.5754 74.0911 27.1686 73.8817C28.0435 73.5676 29.0223 73.2087 29.9862 73.2087Z" fill="#BA0901"></path>
                </svg>