<svg width="92" height="26" viewBox="0 0 92 26" fill="none" xmlns="http://www.w3.org/2000/svg">
<path d="M66.752 11.9695C68.767 10.9971 69.9013 9.4082 69.9013 7.13911C69.9013 2.82686 66.9119 1.40254 62.4955 1.40254H51.5812V24.5502H62.8203C67.0128 24.5502 71.006 22.5439 71.006 17.8387C71.0085 14.9508 69.579 12.7799 66.752 11.9695ZM56.6816 5.3538H61.4572C63.2755 5.3538 64.9657 5.80811 64.9657 8.01089C64.9657 9.95583 63.6347 10.7687 61.8484 10.7687H56.6816V5.3538ZM62.1412 20.5916H56.6816V14.2386H62.2347C64.4122 14.2386 65.9056 15.1816 65.9056 17.5465C65.9081 19.9433 64.1538 20.5916 62.1412 20.5916ZM6.64225 12.6915C6.64225 16.3407 9.60455 19.3023 13.2632 19.3023C16.9217 19.3023 19.8865 16.3432 19.8865 12.6915C19.8865 9.03739 16.9217 6.07824 13.2632 6.07824C9.60701 6.07824 6.64225 9.03739 6.64225 12.6915ZM13.3271 0.280273C6.42573 0.280273 0.830811 5.86459 0.830811 12.7529C0.830811 19.6437 6.42573 25.2329 13.3271 25.2329C20.231 25.2329 25.8284 19.6461 25.8284 12.7529C25.8284 5.86459 20.2334 0.280273 13.3271 0.280273ZM25.0706 12.7529C23.1761 16.8785 18.7793 20.1913 13.3271 20.1913C7.87736 20.1913 3.48065 16.8785 1.58615 12.7529C3.48065 8.62974 7.87736 5.31451 13.3271 5.31451C18.7793 5.31451 23.1761 8.62974 25.0706 12.7529ZM84.9785 10.9332C79.1646 9.44012 78.0575 9.21174 78.0575 7.43134C78.0575 5.48641 79.9446 4.80617 81.566 4.80617C84.0018 4.80617 85.9873 5.52079 86.1472 8.30804H91.0852C91.0852 2.95701 86.6344 0.850001 81.7948 0.850001C77.6023 0.850001 73.1219 3.11909 73.1219 7.85373C73.1219 12.1954 76.5985 13.5264 80.043 14.4351C83.4531 15.3437 86.9272 15.7661 86.9272 18.2611C86.9272 20.6284 84.1986 21.1441 82.4123 21.1441C79.6838 21.1441 77.2775 19.9457 77.2775 16.8662H72.3395C72.2756 22.5733 77.0831 25.1027 82.2155 25.1027C88.5166 25.1027 91.8627 21.925 91.8627 17.6791C91.8652 12.4214 86.6688 11.3507 84.9785 10.9332ZM39.8526 20.82C35.2713 20.82 33.5515 16.9301 33.5515 13.0721C33.5515 9.01774 35.2738 5.13033 39.8526 5.13033C42.3868 5.13033 44.5937 6.8788 44.921 9.18227H49.859C49.2389 3.83371 44.9529 0.850001 39.8526 0.850001C32.6732 0.850001 28.4487 6.19857 28.4487 13.0721C28.4487 19.7493 32.6707 25.1003 39.8526 25.1003C45.5361 25.1003 49.5317 21.4044 50.0533 15.6335H45.1129C44.7241 18.681 42.9699 20.82 39.8526 20.82Z" fill="#1D1B1B"/>
</svg>
