<svg xmlns:xlink="http://www.w3.org/1999/xlink" width="78" id="svg-block" height="81" viewBox="0 0 78 81" fill="none" xmlns="http://www.w3.org/2000/svg">
                    <path d="M43.9553 80.3428L43.1211 79.3179C42.9695 79.1344 39.7086 75.1267 37.7825 71.3638C16.8979 70.9049 0.0780029 55.1497 0.0780029 35.8609C0.0780029 16.2816 17.4136 0.342773 38.738 0.342773C60.0624 0.342773 77.3979 16.2816 77.3979 35.8609C77.3979 45.8342 71.7711 56.6028 61.1392 66.9738C53.207 74.7137 45.3962 79.4709 45.0777 79.6697L43.9553 80.3428ZM38.738 3.40205C19.0971 3.40205 3.11135 17.9642 3.11135 35.8609C3.11135 53.7577 19.0971 68.3198 38.738 68.3198H39.7086L40.1182 69.207C41.286 71.7768 43.4548 74.7596 44.6378 76.3198C50.1888 72.6793 74.3646 55.6391 74.3646 35.8609C74.3494 17.9642 58.3789 3.40205 38.738 3.40205Z" fill="#BA0901"></path>
                    <path d="M22.6309 30.6602C19.8554 30.6602 17.5955 32.9393 17.5955 35.7386C17.5955 38.5379 19.8554 40.817 22.6309 40.817C25.4064 40.817 27.6662 38.5379 27.6662 35.7386C27.6662 32.9393 25.4064 30.6602 22.6309 30.6602ZM22.6309 37.7577C21.5237 37.7577 20.6289 36.8552 20.6289 35.7386C20.6289 34.622 21.5237 33.7195 22.6309 33.7195C23.7381 33.7195 24.6329 34.622 24.6329 35.7386C24.6329 36.8552 23.7229 37.7577 22.6309 37.7577ZM38.3284 30.6602C35.5529 30.6602 33.2931 32.9393 33.2931 35.7386C33.2931 38.5379 35.5529 40.817 38.3284 40.817C41.1039 40.817 43.3638 38.5379 43.3638 35.7386C43.3638 32.9393 41.1039 30.6602 38.3284 30.6602ZM38.3284 37.7577C37.2212 37.7577 36.3264 36.8552 36.3264 35.7386C36.3264 34.622 37.2212 33.7195 38.3284 33.7195C39.4356 33.7195 40.3304 34.622 40.3304 35.7386C40.3304 36.8552 39.4356 37.7577 38.3284 37.7577ZM55.2241 30.6602C52.4486 30.6602 50.1888 32.9393 50.1888 35.7386C50.1888 38.5379 52.4486 40.817 55.2241 40.817C57.9996 40.817 60.2595 38.5379 60.2595 35.7386C60.2595 32.9393 57.9996 30.6602 55.2241 30.6602ZM55.2241 37.7577C54.117 37.7577 53.2221 36.8552 53.2221 35.7386C53.2221 34.622 54.117 33.7195 55.2241 33.7195C56.3313 33.7195 57.2262 34.622 57.2262 35.7386C57.2262 36.8552 56.3313 37.7577 55.2241 37.7577Z" fill="#BA0901"></path>
                </svg>