<svg width="56" height="24" viewBox="0 0 56 24" fill="none" xmlns="http://www.w3.org/2000/svg">
<path d="M6.77752 6.53771H14.7233L14.302 0.27832H0.0849609V23.2347H6.77752V15.7245H13.4701V9.45982H6.77752V6.53771ZM38.1445 11.9668C38.1445 5.70738 32.7052 0.27832 26.4339 0.27832C19.7413 0.27832 14.7233 5.70738 14.7233 11.9668C14.7233 18.2261 19.7413 23.2347 26.4339 23.2347C32.7052 23.2347 38.1445 18.2261 38.1445 11.9668ZM28.103 16.5602C28.103 17.811 27.2658 18.6466 26.4286 18.6466C25.1754 18.6466 24.3381 17.811 24.3381 16.5602V6.95819C24.3381 5.70738 25.1754 4.87173 26.4286 4.87173C27.2658 4.87173 28.519 5.70738 28.519 6.95819L28.103 16.5602ZM48.5967 11.1311L55.2892 0.27832H47.7648L45.253 5.28689L42.3254 0.27832H34.7956L41.4882 11.5516L34.7956 23.2347H41.9041L45.2477 17.3905L48.5913 23.2347H55.6998L48.5967 11.1311Z" fill="#1D1B1B"/>
</svg>
