<svg xmlns:xlink="http://www.w3.org/1999/xlink" width="61" id="svg-block" height="81" viewBox="0 0 61 81" fill="none" xmlns="http://www.w3.org/2000/svg">
                    <path d="M20.9954 32.4843C21.8324 32.4843 22.5173 31.7935 22.5173 30.9493V21.1258C22.5173 18.0713 24.8001 15.5694 27.5852 15.5694H32.7141C35.5144 15.5694 37.782 18.0559 37.782 21.1258V25.5003C37.782 26.3446 38.4669 27.0353 39.3039 27.0353C40.141 27.0353 40.8259 26.3446 40.8259 25.5003V21.1258C40.8259 16.3675 37.1885 12.4995 32.7141 12.4995H27.5852C23.1108 12.4995 19.4734 16.3675 19.4734 21.1258V30.9493C19.4734 31.7935 20.1583 32.4843 20.9954 32.4843ZM43.4435 29.4144H25.2719C24.4349 29.4144 23.75 30.1051 23.75 30.9493C23.75 31.7935 24.4349 32.4843 25.2719 32.4843H43.4435C44.3567 32.4843 45.1177 33.2364 45.1177 34.1727V47.4038C45.1177 52.0546 41.3585 55.8458 36.7471 55.8458H23.5826C18.9712 55.8458 15.2121 52.0546 15.2121 47.4038V34.1727C15.2121 33.2517 15.9578 32.4843 16.8862 32.4843C17.7232 32.4843 18.4081 31.7935 18.4081 30.9493C18.4081 30.1051 17.7232 29.4144 16.8862 29.4144C14.2837 29.4144 12.1683 31.548 12.1683 34.1727V47.4038C12.1683 53.7583 17.2971 58.9157 23.5826 58.9157H36.7471C43.0479 58.9157 48.1615 53.743 48.1615 47.4038V34.1727C48.1615 31.548 46.046 29.4144 43.4435 29.4144ZM29.6398 52.3923L40.5367 37.6723C41.0389 36.9969 40.9019 36.0299 40.2323 35.5234C39.5626 35.0169 38.6038 35.155 38.1016 35.8304L29.1984 47.8489L25.3328 44.3185C24.7088 43.7506 23.75 43.7967 23.1869 44.426C22.6238 45.0553 22.6695 46.0223 23.2935 46.5902L29.6398 52.3923Z" fill="#BA0901"></path>
                    <path d="M30.1877 80.3428L29.5637 80.0665C28.3614 79.5293 0.266968 66.6359 0.266968 48.3704C0.266968 34.418 0.677883 17.6106 0.860512 11.0412C0.921388 8.87693 2.41286 7.01967 4.49788 6.51315L30.1725 0.342773L55.8471 6.51315C57.9321 7.01967 59.4388 8.87693 59.4845 11.0412C59.6671 17.626 60.078 34.4333 60.078 48.3704C60.078 66.6359 31.9836 79.5293 30.7812 80.0665L30.1877 80.3428ZM30.1877 3.48936L5.21318 9.49089C4.46744 9.67508 3.93475 10.3351 3.90431 11.1179C3.72168 17.6874 3.31079 34.464 3.31079 48.3704C3.31079 63.2591 26.0938 74.9859 30.1725 76.9659C34.2664 74.9859 57.0494 63.2591 57.0494 48.3704C57.0494 34.464 56.6385 17.6874 56.4559 11.1179C56.4406 10.3504 55.8928 9.67508 55.147 9.49089L30.1877 3.48936Z" fill="#BA0901"></path>
                </svg>