<svg width="116" height="75" viewBox="0 0 116 75" fill="none" xmlns="http://www.w3.org/2000/svg">
<path d="M86.7048 43.5751C83.3015 45.8227 79.3363 47.1798 74.9364 47.1798C70.8545 47.1798 67.2286 46.2468 64.1964 44.6035L56.4673 50.3923C61.4716 53.8592 67.8011 55.7676 74.8834 55.5343C79.2409 55.3859 83.3227 54.5483 87.0017 53.1064C90.0233 51.919 92.7587 50.3287 95.1442 48.3673V39.3342L73.9186 23.3249L56.3401 36.4822C55.0785 33.9059 54.3893 31.0008 54.3893 27.905C54.3893 17.1544 62.7757 8.31213 74.7986 8.31213C80.7252 8.31213 86.1641 10.8355 90.193 14.5674L95.4517 7.6866C90.0975 3.08524 82.3261 0 74.7668 0C56.5946 0 44.9534 13.0619 44.9534 27.8414C44.9534 33.1637 46.321 38.0301 48.7701 42.1438C50.2226 44.5929 52.0568 46.7769 54.2197 48.6429L73.8974 33.9165L86.7048 43.5751ZM46.4801 0.127226H35.5598L9.54198 28.3821V0.127226H0V55.1739H9.54198V41.179L18.6493 31.0645L36.726 55.1739H47.9856L25.2863 23.6853L46.4801 0.127226ZM10.2735 62.2031V61.9699H7.16709L2.54453 67.1014V61.9699H0V74.7137H2.54453V69.3384L7.61238 74.7137H10.7188V74.3851L4.73919 68.1404L10.2735 62.2031ZM12.712 74.7031H22.2858V72.1586H15.2566V69.6035H21.9996V67.0589H15.2566V64.5038H22.2858V61.9593H12.712V74.7031V74.7031ZM43.4054 61.9699H37.1395V74.7137H39.6841V71.0772H43.4054C45.8651 71.0772 47.869 69.0734 47.869 66.6137V66.4334C47.869 63.9631 45.8757 61.9699 43.4054 61.9699ZM44.6247 68.0662C44.243 68.4478 43.7023 68.6917 43.1192 68.6917H39.6947V64.4296H43.1192C44.296 64.4296 45.2502 65.3838 45.2502 66.5606C45.2396 67.1544 45.0064 67.6845 44.6247 68.0662ZM24.9152 74.7031H34.489V72.1586H27.4597V69.6035H34.2027V67.0589H27.4597V64.5038H34.489V61.9593H24.9152V74.7031ZM109.542 69.5399H112.829V71.5861C112.15 72.2858 111.185 72.6145 109.998 72.6145C107.464 72.6145 105.895 71.0136 105.884 68.2676C105.863 65.9775 107.443 64.0055 110.061 64.0055C111.472 64.0055 112.447 64.4084 113.221 65.299L114.875 63.645C113.762 62.394 112.224 61.62 110.04 61.62C105.736 61.62 103.393 64.5462 103.393 68.2676C103.393 71.989 105.365 75 109.998 75C112.309 75 114.09 74.067 115.214 72.6039V67.218H109.542V69.5399ZM98.3355 69.5823L92.3028 61.9593H90.2354V74.7031H92.7799V66.4546L99.2684 74.7031H100.88V61.9699H98.3355V69.5823V69.5823ZM105.672 0.127226V55.1739H115.214V0.127226H105.672ZM84.4678 74.7031H87.0123V61.9699H84.4678V74.7031ZM61.0051 69.5399H64.2918V71.5861C63.6132 72.2858 62.6484 72.6145 61.461 72.6145C58.9271 72.6145 57.3579 71.0136 57.3473 68.2676C57.3261 65.9775 58.9059 64.0055 61.5246 64.0055C62.9347 64.0055 63.9101 64.4084 64.6841 65.299L66.338 63.645C65.2248 62.394 63.6874 61.62 61.5034 61.62C57.1989 61.62 54.8558 64.5462 54.8558 68.2676C54.8558 71.989 56.8278 75 61.461 75C63.7723 75 65.5534 74.067 66.6773 72.6039V67.218H61.0051V69.5399V69.5399ZM86.9911 29.8876L95.1336 36.0263V26.3359H86.9911V29.8876ZM75.4029 61.7791C71.0984 61.7791 68.7977 64.7371 68.7977 68.3842C68.7977 72.0314 71.2468 74.9894 75.4029 74.9894C79.5589 74.9894 82.0081 72.0314 82.0081 68.3842C82.0081 64.7371 79.6968 61.7791 75.4029 61.7791ZM75.4029 72.6463C72.869 72.6463 71.374 70.7379 71.374 68.3842C71.374 66.0305 72.7841 64.1221 75.4029 64.1221C78.0216 64.1221 79.4317 66.0305 79.4317 68.3842C79.4317 70.7379 77.9368 72.6463 75.4029 72.6463Z" fill="white"/>
</svg>
