<svg width="54" height="56" viewBox="0 0 54 56" fill="none" xmlns="http://www.w3.org/2000/svg">
<path d="M5.77711 16.2659C6.16196 16.8738 6.65865 17.37 7.24415 17.7545L23.5263 28.8774L16.1878 12.0698C16.099 11.8891 16.0299 11.7083 15.9609 11.5506C15.6681 10.8277 15.3951 10.2888 15.1484 9.90436C15.0366 9.76964 14.9214 9.61191 14.7866 9.45419C14.5596 9.20446 14.2899 8.95801 13.9971 8.73128C13.8392 8.64256 13.7044 8.55056 13.5695 8.43883C12.3952 7.65021 10.994 7.40048 9.36905 7.69292C8.48751 7.87365 7.7211 8.2121 7.06652 8.73128C6.7968 8.95801 6.54681 9.18146 6.31985 9.45419C6.16196 9.63492 6.0271 9.83864 5.89223 10.0194C5.55343 10.5155 5.28371 11.0117 5.12582 11.5539C4.8561 12.3655 4.81005 13.2462 4.99096 14.1695C5.14556 14.9581 5.41528 15.681 5.77711 16.2659ZM30.503 28.8774L46.7851 17.7545C47.3937 17.347 47.8706 16.8738 48.2522 16.2659C48.2982 16.2199 48.3213 16.1772 48.341 16.1082C48.5449 15.7698 48.7028 15.3853 48.8377 14.9811C48.9068 14.7347 48.9956 14.439 49.0416 14.1695C49.1304 13.7423 49.1765 13.3119 49.1535 12.9077C49.1074 11.9154 48.7916 10.969 48.1601 10.0194C48.0252 9.83864 47.8904 9.63492 47.7325 9.45419C47.5055 9.18474 47.2588 8.95801 46.9891 8.73128C46.3115 8.2121 45.5451 7.85065 44.6635 7.69292C43.0386 7.40048 41.6373 7.64692 40.4631 8.43883C40.3282 8.55056 40.1703 8.64256 40.0354 8.73128C39.7427 8.98101 39.4927 9.20446 39.269 9.45419C39.1111 9.61191 38.9993 9.76964 38.9072 9.90436C38.6144 10.3545 38.2526 11.0774 37.8447 12.0698L30.503 28.8774ZM23.6612 26.4425L26.3025 7.96566C26.4604 6.9273 26.5295 6.13867 26.5064 5.6195C26.4834 5.12332 26.3716 4.62714 26.1907 4.08496C26.1446 3.90423 26.0558 3.72351 25.9867 3.51978C25.4012 2.18897 24.3388 1.24262 22.8027 0.654439C22.6448 0.585434 22.4869 0.542717 22.306 0.496714C21.3784 0.250268 20.4541 0.250268 19.5298 0.496714C19.214 0.585434 18.8982 0.700442 18.5825 0.835166C17.1582 1.46607 16.1878 2.48142 15.6681 3.85823C15.6451 3.92724 15.599 4.01596 15.5793 4.08496C15.1056 5.50777 15.1287 6.8583 15.6911 8.14638L23.6612 26.4425ZM24.3388 30.6156L9.88548 20.8925C9.52365 20.6658 9.20787 20.4424 8.91512 20.2846C8.48751 20.0152 8.12569 19.8115 7.83294 19.6965C7.22441 19.4697 6.52378 19.358 5.6883 19.358C4.64887 19.358 3.67852 19.6505 2.75093 20.2814C2.41213 20.5081 2.09635 20.7545 1.78058 21.07C0.741149 22.1544 0.221436 23.4622 0.221436 25.0197C0.221436 26.5312 0.741149 27.839 1.78058 28.9234C2.25424 29.3966 2.75093 29.758 3.29367 30.0077C4.04034 30.4152 4.85281 30.6156 5.6883 30.6156H24.3388ZM27.5459 6.61185H29.059C29.5096 6.65785 29.8056 6.72357 29.8714 6.83858C29.9833 6.9503 29.7596 7.13103 29.2629 7.33476L28.878 7.5812L28.4044 7.96566C28.2004 8.14638 28.0886 8.41583 28.0195 8.73128C27.9735 8.95801 27.9505 9.18146 27.9735 9.45419C27.9735 9.56591 27.9735 9.65792 27.9965 9.79264L30.3681 26.4392L38.3612 8.1431C38.9039 6.90101 38.95 5.52749 38.45 4.08168C38.427 4.01267 38.3809 3.92395 38.3612 3.85495C37.8184 2.45513 36.8481 1.46278 35.4468 0.83188C35.1311 0.697156 34.8153 0.582148 34.4995 0.493428C33.5752 0.246982 32.6476 0.246982 31.7233 0.493428C31.5424 0.539431 31.3845 0.582148 31.2266 0.651153C29.6905 1.23934 28.6281 2.20869 28.0426 3.51649C27.9735 3.72022 27.8847 3.90095 27.8156 4.08168C27.5459 4.8933 27.4538 5.68193 27.5459 6.49684V6.61185ZM40.6209 35.7811C39.0388 36.6388 37.7757 37.8349 36.8283 39.3234C35.881 40.8119 35.3613 42.4812 35.2922 44.3082C35.2922 46.2929 35.7659 48.0541 36.6935 49.6544C37.598 51.2546 38.8611 52.5197 40.4433 53.4661C42.0255 54.4124 43.7622 54.9776 45.6832 55.1583C45.976 55.2043 46.4069 55.2043 46.9463 55.2043C48.1667 55.2043 49.364 54.9776 50.581 54.5274V49.8351C49.5646 50.443 48.4594 50.7815 47.216 50.8505C46.5615 50.8505 46.0648 50.8045 45.6799 50.7157C44.1438 50.4003 42.9037 49.6774 41.9531 48.5963C40.9828 47.5152 40.4861 46.2272 40.4861 44.7156C40.4861 43.1121 41.0288 41.7616 42.0682 40.6312C43.1307 39.5041 44.4629 38.8042 46.0648 38.5775C46.7424 38.4888 47.193 38.4428 47.3969 38.4428C48.3015 38.4428 49.3607 38.7812 50.581 39.4351V35.1502C49.2028 34.5851 47.6239 34.3156 45.8148 34.3156C43.9399 34.4043 42.1998 34.9005 40.6209 35.7811ZM52.7914 21.7272C52.6336 21.5004 52.4526 21.277 52.2487 21.0733C51.9329 20.7578 51.5941 20.5081 51.2553 20.2846C50.8705 19.9922 50.4429 19.7885 50.012 19.6307C49.4692 19.45 48.9067 19.3613 48.341 19.3613C47.5055 19.3613 46.8049 19.473 46.2194 19.6998C45.9266 19.8115 45.5418 20.0152 45.1142 20.2879C44.8214 20.4457 44.5056 20.6724 44.1438 20.8958L29.6905 30.6156H48.3443C49.4495 30.6156 50.4889 30.2772 51.4823 29.5773C51.729 29.3966 51.979 29.1698 52.2487 28.9234C52.2948 28.8774 52.3375 28.8347 52.4066 28.7657C53.0151 28.1118 53.423 27.3659 53.65 26.5082C53.719 26.2618 53.7848 25.989 53.8078 25.7196C53.8309 25.4929 53.8309 25.2464 53.8309 25.0197C53.8309 23.7579 53.4921 22.6505 52.7914 21.7272ZM31.9503 43.8777C33.4634 42.9314 34.21 41.4625 34.21 39.4548C34.1212 38.2817 33.6903 37.3124 32.9239 36.5238C32.1575 35.7351 31.1839 35.2817 30.0326 35.147H21.6777V54.5242H30.0326C31.5457 54.4124 32.8088 53.8012 33.8022 52.6742C34.7955 51.5471 35.2922 50.1933 35.2922 48.6357C35.1771 46.3619 34.0489 44.7583 31.9503 43.8777ZM25.8979 38.5775H27.9307C28.4735 38.5775 28.9471 38.7582 29.355 39.1657C29.7826 39.5501 30.0096 40.0003 30.0326 40.5195C30.0326 41.1734 29.8517 41.6926 29.4668 42.1657C29.082 42.6389 28.5853 42.8656 27.9998 42.8656H25.9012V38.5775H25.8979ZM30.3451 50.1966C29.7366 50.558 29.059 50.7157 28.3123 50.7157H25.8946V46.0464H28.3123C30.253 46.1581 31.2464 47.0158 31.2464 48.5733C31.2496 49.3159 30.9339 49.8581 30.3451 50.1966ZM15.4642 44.7123L3.92522 34.3123V54.5242H8.10266V44.3049L19.7535 55.1551V35.147H15.4642V44.7123Z" fill="#1D1B1B"/>
</svg>
