<svg width="135" height="70" viewBox="0 0 135 70" fill="none" xmlns="http://www.w3.org/2000/svg">
<path d="M75.2494 69.7346C75.2111 69.8249 75.1555 69.8925 75.079 69.9359C75.0043 69.9793 74.9261 70.0001 74.8461 70.0001H74.5697L78.9731 59.7716C79.0443 59.6033 79.1712 59.52 79.3555 59.52H79.6458L75.2494 69.7346Z" fill="black"/>
<path fill-rule="evenodd" clip-rule="evenodd" d="M55.0908 66.1464H53.255V59.7785H52.6535L47.6208 66.1794L47.6834 66.5004C47.6973 66.5507 47.7234 66.5906 47.7617 66.6201C47.7999 66.6496 47.8538 66.6635 47.9251 66.6635H52.6501V69.4275H53.2585V66.6635H54.9013C54.9656 66.6635 55.0143 66.6496 55.0456 66.6201C55.0752 66.5906 55.0908 66.5507 55.0908 66.5004V66.1464ZM52.6535 60.8561C52.6483 60.9411 52.6466 61.0244 52.6466 61.1007H52.6483V66.1464H48.3579L52.6814 60.5906C52.6675 60.6808 52.6588 60.7693 52.6535 60.8561Z" fill="black"/>
<path d="M56.1808 68.6589C56.146 68.7352 56.1304 68.8168 56.1304 68.9035C56.1304 69.0805 56.1929 69.2297 56.3181 69.3494C56.4433 69.4692 56.598 69.5299 56.7823 69.5299C56.8727 69.5299 56.9578 69.5126 57.0378 69.4813C57.1178 69.4501 57.1873 69.4067 57.2464 69.3494C57.3038 69.2922 57.3507 69.2263 57.3872 69.1516C57.4237 69.077 57.4411 68.9937 57.4411 68.9035C57.4411 68.8185 57.422 68.7369 57.3872 68.6589C57.3525 68.5808 57.3055 68.5149 57.2464 68.4576C57.1873 68.4021 57.1178 68.357 57.0378 68.3223C56.9561 68.2893 56.8727 68.2719 56.7823 68.2719C56.6866 68.2719 56.6015 68.2876 56.5232 68.3223C56.445 68.3552 56.3772 68.4003 56.3181 68.4576C56.259 68.5149 56.2138 68.5825 56.1808 68.6589Z" fill="black"/>
<path d="M65.0206 60.0718C65.0206 60.162 64.9893 60.2384 64.925 60.2991C64.8607 60.3598 64.7616 60.3911 64.6242 60.3911H60.9997L60.3982 63.6062C60.7146 63.5299 61.0136 63.4726 61.2969 63.4396C61.5803 63.4067 61.8515 63.3893 62.1105 63.3893C62.6303 63.3893 63.0875 63.4605 63.4838 63.6045C63.8802 63.7468 64.2122 63.948 64.4782 64.2031C64.7442 64.4599 64.9458 64.7653 65.0832 65.1192C65.2205 65.4732 65.2883 65.8601 65.2883 66.2766C65.2883 66.7849 65.1962 67.2395 65.0119 67.6421C64.8276 68.0446 64.579 68.3847 64.2644 68.6675C63.9497 68.9486 63.5829 69.1655 63.164 69.3147C62.7433 69.464 62.2983 69.5386 61.8254 69.5386C61.5472 69.5386 61.283 69.5143 61.0327 69.4674C60.7824 69.4206 60.5459 69.3564 60.3252 69.2766C60.1026 69.1968 59.901 69.1048 59.7167 69.0007C59.5324 68.8966 59.369 68.789 59.2282 68.6814L59.4264 68.416C59.4733 68.3483 59.5429 68.3136 59.6315 68.3136C59.6924 68.3136 59.781 68.3483 59.8975 68.416C60.014 68.4836 60.1617 68.5582 60.3443 68.6398C60.5251 68.7213 60.7406 68.7959 60.9892 68.8636C61.2378 68.9313 61.5264 68.966 61.8567 68.966C62.2444 68.966 62.6042 68.9053 62.9397 68.7855C63.2752 68.6658 63.5655 68.4923 63.8141 68.265C64.0627 68.0377 64.2557 67.7583 64.3948 67.4235C64.5338 67.0903 64.6034 66.7121 64.6034 66.2904C64.6034 65.9451 64.5495 65.6276 64.4434 65.3361C64.3374 65.0464 64.1775 64.7965 63.9619 64.59C63.7463 64.3835 63.4752 64.2222 63.1483 64.1059C62.8198 63.9897 62.4339 63.9324 61.9906 63.9324C61.7211 63.9324 61.436 63.9532 61.1335 63.9932C60.831 64.0348 60.5112 64.099 60.1704 64.1909L59.7324 64.0608L60.5181 59.7907H65.0206V60.0718Z" fill="black"/>
<path d="M73.1372 60.2991C73.2016 60.2384 73.2328 60.162 73.2328 60.0718V59.789H68.7304L67.9446 64.0591L68.3827 64.1892C68.7234 64.0973 69.0433 64.0331 69.3458 63.9914C69.6482 63.9515 69.9333 63.9307 70.2028 63.9307C70.6461 63.9307 71.032 63.9879 71.3606 64.1042C71.6874 64.2204 71.9586 64.3818 72.1741 64.5883C72.3897 64.7948 72.5497 65.0446 72.6557 65.3344C72.7617 65.6259 72.8156 65.9434 72.8156 66.2887C72.8156 66.7103 72.7461 67.0886 72.607 67.4217C72.468 67.7566 72.275 68.036 72.0264 68.2633C71.7778 68.4906 71.4875 68.6641 71.152 68.7838C70.8165 68.9035 70.4566 68.9642 70.0689 68.9642C69.7386 68.9642 69.4501 68.9295 69.2015 68.8619C68.9529 68.7942 68.7373 68.7196 68.5565 68.638C68.374 68.5565 68.2262 68.4819 68.1097 68.4142C67.9933 68.3465 67.9046 68.3118 67.8438 68.3118C67.7551 68.3118 67.6856 68.3465 67.6386 68.4142L67.4405 68.6797C67.5813 68.7873 67.7447 68.8948 67.9289 68.999C68.1132 69.1031 68.3149 69.195 68.5374 69.2748C68.7582 69.3546 68.9946 69.4188 69.2449 69.4657C69.4953 69.5125 69.7595 69.5368 70.0376 69.5368C70.5105 69.5368 70.9555 69.4622 71.3762 69.313C71.7952 69.1638 72.162 68.9469 72.4766 68.6658C72.7913 68.383 73.0399 68.0429 73.2242 67.6404C73.4084 67.2378 73.5006 66.7832 73.5006 66.2748C73.5006 65.8584 73.4328 65.4715 73.2954 65.1175C73.1581 64.7635 72.9564 64.4581 72.6905 64.2014C72.4245 63.9463 72.0924 63.745 71.6961 63.6027C71.2997 63.4587 70.8425 63.3876 70.3227 63.3876C70.0637 63.3876 69.7925 63.4049 69.5092 63.4379C69.2258 63.4709 68.9268 63.5281 68.6104 63.6045L69.2119 60.391H72.8365C72.9738 60.391 73.0729 60.3598 73.1372 60.2991Z" fill="black"/>
<path d="M86.3961 60.2991C86.4604 60.2384 86.4917 60.162 86.4917 60.0718V59.789H81.9892L81.2035 64.0591L81.6415 64.1892C81.9823 64.0973 82.3021 64.0331 82.6046 63.9914C82.9071 63.9515 83.1922 63.9307 83.4617 63.9307C83.9049 63.9307 84.2909 63.9879 84.6194 64.1042C84.9463 64.2204 85.2174 64.3818 85.433 64.5883C85.6486 64.7948 85.8085 65.0446 85.9145 65.3344C86.0206 65.6259 86.0745 65.9434 86.0745 66.2887C86.0745 66.7103 86.0049 67.0886 85.8659 67.4217C85.7268 67.7566 85.5338 68.036 85.2852 68.2633C85.0366 68.4906 84.7463 68.6641 84.4108 68.7838C84.0753 68.9035 83.7155 68.9642 83.3278 68.9642C82.9975 68.9642 82.7089 68.9295 82.4603 68.8619C82.2117 68.7942 81.9962 68.7196 81.8154 68.638C81.6328 68.5565 81.4851 68.4819 81.3686 68.4142C81.2521 68.3465 81.1635 68.3118 81.1026 68.3118C81.014 68.3118 80.9444 68.3465 80.8975 68.4142L80.6993 68.6797C80.8401 68.7873 81.0035 68.8948 81.1878 68.999C81.3721 69.1031 81.5737 69.195 81.7962 69.2748C82.017 69.3546 82.2535 69.4188 82.5038 69.4657C82.7541 69.5125 83.0183 69.5368 83.2965 69.5368C83.7694 69.5368 84.2144 69.4622 84.6351 69.313C85.054 69.1638 85.4208 68.9469 85.7355 68.6658C86.0501 68.383 86.2987 68.0429 86.483 67.6404C86.6673 67.2378 86.7594 66.7832 86.7594 66.2748C86.7594 65.8584 86.6916 65.4715 86.5543 65.1175C86.417 64.7635 86.2153 64.4581 85.9493 64.2014C85.6833 63.9463 85.3513 63.745 84.9549 63.6027C84.5586 63.4587 84.1014 63.3876 83.5816 63.3876C83.3226 63.3876 83.0514 63.4049 82.768 63.4379C82.4847 63.4709 82.1857 63.5281 81.8693 63.6045L82.4708 60.391H86.0953C86.2327 60.391 86.3318 60.3598 86.3961 60.2991Z" fill="black"/>
<path d="M31.4296 8.16178C31.3027 7.99561 31.1604 7.8637 31.0009 7.76262C31.6199 7.69581 32.1737 7.55533 32.6658 7.33947C33.1578 7.12362 33.5779 6.8478 33.9277 6.51202C34.2775 6.17624 34.5449 5.78565 34.7301 5.34194C34.9153 4.89652 35.0096 4.40485 35.0096 3.86692C35.0096 2.6523 34.6067 1.73062 33.8025 1.1019C32.9984 0.474887 31.781 0.159668 30.1539 0.159668H27.0694C26.7847 0.159668 26.555 0.38923 26.555 0.673612V13.7484C26.555 14.0293 26.783 14.2572 27.0642 14.2572C27.3454 14.2572 27.5735 14.0293 27.5735 13.7484V7.88425H29.4183C29.691 7.88425 29.8916 7.91338 30.0219 7.97334C30.1522 8.0333 30.2722 8.13609 30.3854 8.2817L34.9016 14.0002C34.9753 14.0927 35.049 14.1595 35.1262 14.1989C35.2033 14.2383 35.2942 14.2589 35.4005 14.2589C35.7589 14.2589 35.9578 13.846 35.7349 13.5651L31.4296 8.16178ZM30.0236 7.12704H27.7432C27.6489 7.12704 27.5717 7.04995 27.5717 6.95573V1.1413C27.5717 1.04708 27.6489 0.969987 27.7432 0.969987H30.1539C31.4107 0.969987 32.3674 1.21325 33.0258 1.69808C33.6842 2.1829 34.0134 2.9264 34.0134 3.93031C34.0134 4.42198 33.9243 4.86397 33.7442 5.25457C33.5642 5.64688 33.3036 5.98266 32.9624 6.26019C32.6195 6.53943 32.2011 6.75358 31.7056 6.90262C31.2084 7.05166 30.6494 7.12704 30.0236 7.12704Z" fill="black"/>
<path d="M46.8795 0.163086H39.3525C39.0679 0.163086 38.8381 0.392648 38.8381 0.67703V13.7449C38.8381 14.0293 39.0679 14.2589 39.3525 14.2589H46.8795C47.1076 14.2589 47.2927 14.0738 47.2927 13.846V13.8254C47.2927 13.5976 47.1076 13.4126 46.8795 13.4126H40.0366C39.9423 13.4126 39.8652 13.3355 39.8652 13.2413V7.70608C39.8652 7.61185 39.9423 7.53476 40.0366 7.53476H45.633C45.8611 7.53476 46.0462 7.34974 46.0462 7.12189C46.0462 6.89404 45.8611 6.70902 45.633 6.70902H40.0366C39.9423 6.70902 39.8652 6.63193 39.8652 6.53771V1.1807C39.8652 1.08647 39.9423 1.00938 40.0366 1.00938H46.8795C47.1076 1.00938 47.2927 0.824361 47.2927 0.596512V0.575955C47.2927 0.348106 47.1076 0.163086 46.8795 0.163086Z" fill="black"/>
<path d="M60.4333 0.163086C60.3407 0.163086 60.2618 0.190496 60.1984 0.241891C60.1349 0.294998 60.0869 0.358385 60.0544 0.430337L55.2587 12.126C55.2107 12.2459 55.1644 12.3693 55.1232 12.4995C55.0735 12.6571 54.854 12.6622 54.8009 12.5046C54.758 12.3744 54.71 12.2476 54.6603 12.1243L49.8543 0.43205C49.8217 0.353245 49.7737 0.288146 49.7154 0.238464C49.6554 0.188783 49.58 0.163086 49.4857 0.163086C49.1016 0.163086 48.8393 0.553684 48.9867 0.908305L54.3276 13.8391C54.4322 14.0927 54.6791 14.2589 54.9552 14.2589C55.2295 14.2589 55.4764 14.0927 55.5827 13.8391L60.9288 0.898027C61.0711 0.548544 60.8139 0.163086 60.4333 0.163086Z" fill="black"/>
<path d="M64.3563 0.163086C64.0734 0.163086 63.8436 0.392648 63.8436 0.675317V13.7449C63.8436 14.0276 64.0734 14.2572 64.3563 14.2572C64.6392 14.2572 64.8689 14.0276 64.8689 13.7449V0.67703C64.8689 0.392648 64.6392 0.163086 64.3563 0.163086Z" fill="black"/>
<path d="M77.4761 0.163086H69.9491C69.6645 0.163086 69.4348 0.392648 69.4348 0.67703V13.7449C69.4348 14.0293 69.6645 14.2589 69.9491 14.2589H77.4761C77.7042 14.2589 77.8894 14.0738 77.8894 13.846V13.8254C77.8894 13.5976 77.7042 13.4126 77.4761 13.4126H70.635C70.5407 13.4126 70.4635 13.3355 70.4635 13.2413V7.70608C70.4635 7.61185 70.5407 7.53476 70.635 7.53476H76.2314C76.4594 7.53476 76.6446 7.34974 76.6446 7.12189C76.6446 6.89404 76.4594 6.70902 76.2314 6.70902H70.635C70.5407 6.70902 70.4635 6.63193 70.4635 6.53771V1.1807C70.4635 1.08647 70.5407 1.00938 70.635 1.00938H77.4779C77.7059 1.00938 77.8911 0.824361 77.8911 0.596512V0.575955C77.8911 0.348106 77.7059 0.163086 77.4761 0.163086Z" fill="black"/>
<path d="M97.8508 0.163086C97.7582 0.163086 97.6759 0.190496 97.6073 0.241891C97.537 0.294998 97.4924 0.358385 97.4719 0.430337L93.9124 12.0164C93.873 12.15 93.8387 12.2905 93.813 12.4395C93.7855 12.5885 93.7564 12.7427 93.7238 12.9021C93.6912 12.7359 93.6552 12.58 93.6192 12.4344C93.5832 12.2887 93.5403 12.1483 93.494 12.0164L89.5059 0.43205C89.4734 0.353245 89.4253 0.288146 89.367 0.238464C89.307 0.188783 89.2316 0.163086 89.1373 0.163086H88.8578C88.7652 0.163086 88.6846 0.190496 88.6178 0.241891C88.5509 0.294998 88.5046 0.358385 88.4789 0.430337L84.4908 12.0164C84.4445 12.15 84.4051 12.2922 84.3708 12.4446C84.3382 12.5971 84.3039 12.7564 84.2713 12.9226C84.2387 12.7564 84.2062 12.5971 84.177 12.4446C84.1479 12.2922 84.1119 12.15 84.0724 12.0164L80.513 0.43205C80.4598 0.25217 80.3364 0.163086 80.1443 0.163086H80.0757C79.69 0.163086 79.4156 0.536552 79.5322 0.904879L83.6078 13.822C83.6901 14.0824 83.9318 14.2589 84.2044 14.2589C84.4719 14.2589 84.7102 14.0893 84.7977 13.8357L88.8304 2.02699C88.8835 1.86767 88.9298 1.69807 88.9693 1.51819C89.0087 1.69807 89.055 1.86767 89.1081 2.02699L93.1305 13.8357C93.2163 14.0893 93.4546 14.2606 93.7238 14.2606H93.7324C94.0067 14.2606 94.2485 14.0824 94.329 13.822L98.3943 0.904879C98.5109 0.536552 98.2366 0.163086 97.8508 0.163086Z" fill="black"/>
<path d="M108.054 8.69594C107.85 8.30706 107.583 7.97984 107.25 7.71431C106.917 7.44877 106.54 7.22777 106.117 7.05132C105.693 6.87486 105.259 6.71383 104.814 6.56821C104.368 6.42259 103.934 6.27526 103.51 6.1245C103.089 5.97546 102.71 5.79044 102.377 5.57116C102.045 5.35187 101.777 5.08634 101.573 4.77454C101.371 4.46275 101.268 4.06701 101.268 3.58905C101.268 3.22414 101.336 2.87466 101.474 2.54231C101.611 2.20996 101.81 1.91873 102.074 1.66518C102.338 1.41335 102.663 1.21291 103.054 1.06729C103.444 0.921674 103.896 0.848008 104.409 0.848008C104.922 0.848008 105.354 0.911395 105.703 1.03817C106.053 1.16494 106.345 1.30199 106.578 1.45104C106.811 1.60008 106.996 1.73713 107.133 1.85877C107.271 1.98211 107.382 2.04379 107.468 2.04379C107.581 2.04379 107.667 1.98725 107.727 1.87418C107.876 1.5898 107.799 1.24203 107.548 1.03988C107.183 0.746933 106.792 0.517371 106.374 0.349482C105.791 0.116494 105.134 0 104.402 0C103.751 0 103.169 0.101076 102.66 0.303227C102.151 0.505379 101.724 0.774343 101.378 1.11012C101.031 1.4459 100.769 1.83307 100.589 2.26992C100.409 2.70677 100.32 3.16247 100.32 3.6353C100.32 4.24004 100.421 4.74199 100.625 5.14458C100.827 5.54717 101.096 5.88124 101.429 6.1502C101.762 6.41917 102.139 6.64016 102.562 6.81319C102.984 6.98622 103.42 7.14211 103.865 7.28088C104.311 7.41964 104.745 7.56355 105.168 7.70917C105.592 7.85478 105.969 8.03638 106.302 8.25223C106.634 8.46809 106.902 8.73705 107.106 9.05913C107.308 9.3812 107.411 9.79064 107.411 10.2892C107.411 10.7466 107.331 11.1783 107.171 11.5792C107.012 11.9818 106.78 12.3278 106.477 12.6208C106.173 12.9137 105.803 13.1433 105.364 13.3129C104.925 13.4825 104.426 13.5664 103.865 13.5664C103.459 13.5664 103.097 13.527 102.777 13.4465C102.458 13.366 102.175 13.2683 101.928 13.1518C101.681 13.0353 101.465 12.9103 101.278 12.7732C101.091 12.6379 100.932 12.5111 100.8 12.3946C100.666 12.2781 100.553 12.1805 100.46 12.1C100.368 12.0212 100.29 11.98 100.23 11.98C100.124 11.98 100.032 12.0297 99.951 12.1291C99.7795 12.3981 99.8276 12.751 100.062 12.9685C100.474 13.354 100.932 13.6692 101.438 13.9176C102.11 14.2465 102.91 14.411 103.84 14.411C104.558 14.411 105.196 14.2996 105.753 14.0769C106.312 13.8542 106.784 13.551 107.169 13.1655C107.555 12.7801 107.848 12.3278 108.052 11.8053C108.255 11.2845 108.356 10.7277 108.356 10.1367C108.359 9.56622 108.258 9.08311 108.054 8.69594Z" fill="black"/>
<path d="M13.1265 24.6659L16.5248 31.5459C16.7134 31.9297 17.0803 32.1952 17.5038 32.2569L25.1028 33.3601C25.2434 33.3807 25.3 33.5537 25.1971 33.6531L19.6985 39.0084C19.3916 39.3065 19.2527 39.7365 19.3247 40.1579L20.6226 47.7197C20.6466 47.8602 20.4992 47.9664 20.374 47.8996L13.5774 44.3294C13.1985 44.1307 12.7458 44.1307 12.3669 44.3294L5.57032 47.8996C5.44515 47.9664 5.2977 47.8585 5.3217 47.7197L6.61964 40.1579C6.69165 39.7365 6.55277 39.3065 6.24586 39.0084L0.748916 33.6514C0.647755 33.552 0.702622 33.379 0.843218 33.3584L8.44224 32.2552C8.86574 32.1935 9.23095 31.9279 9.42127 31.5442L12.8196 24.6642C12.883 24.5374 13.0648 24.5374 13.1265 24.6659Z" fill="#E5A648"/>
<path d="M40.3694 24.6659L43.7677 31.5459C43.9563 31.9297 44.3232 32.1952 44.7467 32.2569L52.3458 33.3602C52.4863 33.3807 52.5429 33.5538 52.4401 33.6531L46.9414 39.0084C46.6345 39.3065 46.4956 39.7365 46.5676 40.1579L47.8656 47.7198C47.8896 47.8603 47.7421 47.9665 47.6169 47.8997L40.8203 44.3295C40.4414 44.1307 39.9888 44.1307 39.6098 44.3295L32.8132 47.8997C32.6881 47.9665 32.5406 47.8585 32.5646 47.7198L33.8626 40.1579C33.9346 39.7365 33.7957 39.3065 33.4888 39.0084L27.9901 33.6531C27.889 33.5538 27.9438 33.3807 28.0844 33.3602L35.6835 32.2569C36.107 32.1952 36.4722 31.9297 36.6625 31.5459L40.0608 24.6659C40.1242 24.5375 40.306 24.5375 40.3694 24.6659Z" fill="#E5A648"/>
<path d="M67.6106 24.6659L71.0089 31.5459C71.1975 31.9297 71.5644 32.1952 71.9879 32.2569L79.587 33.3602C79.7276 33.3807 79.7841 33.5538 79.6813 33.6531L74.1826 39.0084C73.8757 39.3065 73.7368 39.7365 73.8088 40.1579L75.1068 47.7198C75.1308 47.8603 74.9833 47.9665 74.8581 47.8997L68.0616 44.3295C67.6826 44.1307 67.23 44.1307 66.8511 44.3295L60.0545 47.8997C59.9293 47.9665 59.7818 47.8585 59.8058 47.7198L61.1038 40.1579C61.1758 39.7365 61.0369 39.3065 60.73 39.0084L55.2313 33.6531C55.1302 33.5538 55.185 33.3807 55.3256 33.3602L62.9247 32.2569C63.3482 32.1952 63.7134 31.9297 63.9037 31.5459L67.302 24.6659C67.3654 24.5375 67.5472 24.5375 67.6106 24.6659Z" fill="#E5A648"/>
<path d="M94.8539 24.6659L98.2522 31.5459C98.4408 31.9297 98.8077 32.1952 99.2312 32.2569L106.83 33.3602C106.971 33.3807 107.027 33.5538 106.925 33.6531L101.426 39.0084C101.119 39.3065 100.98 39.7365 101.052 40.1579L102.35 47.7198C102.374 47.8603 102.227 47.9665 102.101 47.8997L95.3048 44.3295C94.9259 44.1307 94.4732 44.1307 94.0943 44.3295L87.2977 47.8997C87.1726 47.9665 87.0251 47.8585 87.0491 47.7198L88.3471 40.1579C88.4191 39.7365 88.2802 39.3065 87.9733 39.0084L82.4746 33.6531C82.3735 33.5538 82.4283 33.3807 82.5689 33.3602L90.1679 32.2569C90.5914 32.1952 90.9567 31.9297 91.147 31.5459L94.5453 24.6659C94.6087 24.5375 94.7905 24.5375 94.8539 24.6659Z" fill="#E5A648"/>
<path d="M122.095 24.6659L125.493 31.5459C125.682 31.9297 126.049 32.1952 126.472 32.2569L134.071 33.3602C134.212 33.3807 134.269 33.5538 134.166 33.6531L128.667 39.0084C128.36 39.3065 128.221 39.7365 128.293 40.1579L129.591 47.7198C129.615 47.8603 129.468 47.9665 129.343 47.8997L122.546 44.3295C122.167 44.1307 121.714 44.1307 121.336 44.3295L114.539 47.8997C114.414 47.9665 114.266 47.8585 114.29 47.7198L115.588 40.1579C115.66 39.7365 115.521 39.3065 115.214 39.0084L109.716 33.6531C109.615 33.5538 109.67 33.3807 109.81 33.3602L117.409 32.2569C117.833 32.1952 118.198 31.9297 118.388 31.5459L121.786 24.6659C121.85 24.5375 122.032 24.5375 122.095 24.6659Z" fill="#C2C2C2"/>
<path d="M121.922 24.5701C121.867 24.5769 121.816 24.606 121.788 24.6626L118.39 31.5426C118.201 31.9263 117.834 32.1919 117.411 32.2535L109.812 33.3568C109.671 33.3774 109.615 33.5504 109.718 33.6498L115.216 39.0051C115.523 39.3031 115.662 39.7331 115.59 40.1546L114.292 47.7164C114.268 47.8569 114.415 47.9631 114.541 47.8963L121.337 44.3261C121.521 44.2302 121.721 44.1805 121.922 44.1788V24.5701Z" fill="#E5A648"/>
</svg>
