<svg xmlns:xlink="http://www.w3.org/1999/xlink" width="102" height="21" viewBox="0 0 102 21" fill="none" xmlns="http://www.w3.org/2000/svg">
        <path d="M9.05544 3.27037C9.36673 2.37481 10.6333 2.37481 10.9446 3.27037L12.1227 6.65963C12.26 7.0547 12.6287 7.32257 13.0469 7.33109L16.6343 7.40419C17.5822 7.42351 17.9736 8.62806 17.2181 9.20086L14.3587 11.3686C14.0254 11.6213 13.8846 12.0548 14.0057 12.4551L15.0448 15.8895C15.3193 16.797 14.2947 17.5415 13.5164 16.9999L10.5712 14.9504C10.2279 14.7115 9.77214 14.7115 9.42882 14.9504L6.48356 16.9999C5.70532 17.5415 4.68067 16.797 4.95522 15.8895L5.99427 12.4551C6.11539 12.0548 5.97456 11.6213 5.64126 11.3686L2.78194 9.20086C2.02641 8.62806 2.41779 7.42351 3.36571 7.40419L6.95314 7.33109C7.37131 7.32257 7.74 7.0547 7.87733 6.65963L9.05544 3.27037Z" fill="#BA0901"></path>
        <path d="M50.2554 3.27037C50.5667 2.37481 51.8332 2.37481 52.1445 3.27037L53.3226 6.65963C53.4599 7.0547 53.8286 7.32257 54.2468 7.33109L57.8342 7.40419C58.7822 7.42351 59.1735 8.62806 58.418 9.20086L55.5587 11.3686C55.2254 11.6213 55.0846 12.0548 55.2057 12.4551L56.2447 15.8895C56.5193 16.797 55.4946 17.5415 54.7164 16.9999L51.7711 14.9504C51.4278 14.7115 50.9721 14.7115 50.6288 14.9504L47.6835 16.9999C46.9053 17.5415 45.8806 16.797 46.1552 15.8895L47.1942 12.4551C47.3153 12.0548 47.1745 11.6213 46.8412 11.3686L43.9819 9.20086C43.2264 8.62806 43.6177 7.42351 44.5657 7.40419L48.1531 7.33109C48.5713 7.32257 48.94 7.0547 49.0773 6.65963L50.2554 3.27037Z" fill="#BA0901"></path>
        <path d="M29.6554 3.27037C29.9667 2.37481 31.2332 2.37481 31.5445 3.27037L32.7226 6.65963C32.86 7.0547 33.2287 7.32257 33.6468 7.33109L37.2343 7.40419C38.1822 7.42351 38.5736 8.62806 37.818 9.20086L34.9587 11.3686C34.6254 11.6213 34.4846 12.0548 34.6057 12.4551L35.6448 15.8895C35.9193 16.797 34.8947 17.5415 34.1164 16.9999L31.1712 14.9504C30.8278 14.7115 30.3721 14.7115 30.0288 14.9504L27.0835 16.9999C26.3053 17.5415 25.2806 16.797 25.5552 15.8895L26.5942 12.4551C26.7154 12.0548 26.5745 11.6213 26.2412 11.3686L23.3819 9.20086C22.6264 8.62806 23.0178 7.42351 23.9657 7.40419L27.5531 7.33109C27.9713 7.32257 28.34 7.0547 28.4773 6.65963L29.6554 3.27037Z" fill="#BA0901"></path>
        <path d="M70.8555 3.27037C71.1668 2.37481 72.4333 2.37481 72.7446 3.27037L73.9227 6.65963C74.06 7.0547 74.4287 7.32257 74.8469 7.33109L78.4343 7.40419C79.3823 7.42351 79.7736 8.62806 79.0181 9.20086L76.1588 11.3686C75.8255 11.6213 75.6847 12.0548 75.8058 12.4551L76.8448 15.8895C77.1194 16.797 76.0947 17.5415 75.3165 16.9999L72.3712 14.9504C72.0279 14.7115 71.5722 14.7115 71.2289 14.9504L68.2836 16.9999C67.5054 17.5415 66.4807 16.797 66.7553 15.8895L67.7943 12.4551C67.9154 12.0548 67.7746 11.6213 67.4413 11.3686L64.582 9.20086C63.8265 8.62806 64.2178 7.42351 65.1658 7.40419L68.7532 7.33109C69.1714 7.32257 69.5401 7.0547 69.6774 6.65963L70.8555 3.27037Z" fill="#BA0901"></path>
        <path d="M90.8555 3.27037C91.1668 2.37481 92.4333 2.37481 92.7446 3.27037L93.9227 6.65963C94.06 7.0547 94.4287 7.32257 94.8469 7.33109L98.4343 7.40419C99.3823 7.42351 99.7736 8.62806 99.0181 9.20086L96.1588 11.3686C95.8255 11.6213 95.6847 12.0548 95.8058 12.4551L96.8448 15.8895C97.1194 16.797 96.0947 17.5415 95.3165 16.9999L92.3712 14.9504C92.0279 14.7115 91.5722 14.7115 91.2289 14.9504L88.2836 16.9999C87.5054 17.5415 86.4807 16.797 86.7553 15.8895L87.7943 12.4551C87.9154 12.0548 87.7746 11.6213 87.4413 11.3686L84.582 9.20086C83.8265 8.62806 84.2178 7.42351 85.1658 7.40419L88.7532 7.33109C89.1714 7.32257 89.5401 7.0547 89.6774 6.65963L90.8555 3.27037Z" fill="#BA0901"></path>
      </svg>