<svg width="135" height="48" viewBox="0 0 135 48" fill="none" xmlns="http://www.w3.org/2000/svg">
<path d="M68.715 5.90183H63.9466V15.132C63.9466 16.9492 63.7443 18.7376 61.3457 18.7376C58.9181 18.7376 58.7448 16.9492 58.7448 15.132V5.90183H53.9475V16.4877C53.9475 20.5836 56.4617 22.8623 61.3457 22.8623C66.0851 22.8623 68.715 20.5836 68.715 16.4877V5.90183ZM23.7478 0.219482C10.7143 0.219482 0.137207 10.7765 0.137207 23.7565C0.137207 36.7365 10.6854 47.2936 23.7189 47.2936C36.7525 47.2936 47.3296 36.7653 47.3296 23.7565C47.3296 10.7765 36.7814 0.219482 23.7478 0.219482ZM88.7999 20.1221H95.0999L95.8802 22.5162H100.851L94.6375 5.87299H89.3779L83.1935 22.5162H88.0485L88.7999 20.1221ZM91.2852 12.3341C91.5742 11.5553 91.7765 10.5746 91.8632 9.85351H92.0077C92.0944 10.5458 92.3256 11.5553 92.5857 12.3341L93.8573 16.3435H89.9848L91.2852 12.3341ZM76.2288 19.1991C74.5815 19.1991 73.1654 18.2761 72.2985 17.2665L69.9865 20.4394C71.0269 21.5355 73.3966 22.8623 76.4311 22.8623C80.5925 22.8623 82.9045 20.4683 82.9045 17.2665C82.9045 14.1802 80.8237 12.9687 78.1072 12.1034C76.7489 11.6707 75.4774 11.3823 75.4774 10.3439C75.4774 9.68045 75.9976 9.19009 77.2402 9.19009C78.6852 9.19009 79.8412 9.85351 80.5347 10.6323L82.7022 7.45943C81.4884 6.30565 79.5522 5.52685 77.009 5.52685C73.3388 5.52685 70.7379 7.66134 70.7379 10.8054C70.7379 13.661 72.8765 14.9013 75.304 15.6512C77.1246 16.1993 78.1939 16.5454 78.1939 17.6992C78.1939 18.6799 77.4714 19.1991 76.2288 19.1991ZM54.0342 29.6985H58.1379V42.4765H62.9351V29.6985H67.0388V25.8333H54.0342V29.6985ZM93.5972 25.8333H87.4416V42.5054H93.5972C99.4059 42.5054 102.874 39.2748 102.874 34.1693C102.874 28.9774 99.4926 25.8333 93.5972 25.8333ZM93.2215 38.6402H92.21V29.6985H93.2215C96.2848 29.6985 97.932 31.1695 97.932 34.1693C97.932 37.1692 96.2848 38.6402 93.2215 38.6402ZM76.5466 25.516C70.3333 25.516 67.3856 30.1023 67.3856 34.1982C67.3856 38.2653 70.3333 42.8227 76.5466 42.8227C82.7889 42.8227 85.7366 38.2653 85.7366 34.1982C85.7366 30.1023 82.7889 25.516 76.5466 25.516ZM76.5177 38.6979C74.2058 38.6979 72.2696 37.1692 72.2696 34.1982C72.2696 31.1984 74.2347 29.6696 76.5177 29.6696C78.8297 29.6696 80.7948 31.1984 80.7948 34.1982C80.7948 37.1403 78.8297 38.6691 76.5177 38.6979ZM128.999 25.8333L126.745 29.9292C126.282 30.8234 125.617 32.1502 125.473 33.0156H125.386C125.242 32.1502 124.548 30.7946 124.086 29.9292L121.832 25.8333H116.601L122.843 36.5634V42.4765H127.872V36.5634L134.085 25.8333H128.999ZM108.422 25.8333L102.238 42.4765H107.093L107.844 40.0825H114.144L114.925 42.4765H119.895L113.682 25.8333H108.422ZM109.029 36.3038L110.33 32.2945C110.619 31.5157 110.821 30.535 110.908 29.8138H111.052C111.139 30.5061 111.37 31.5157 111.63 32.2945L112.931 36.3038H109.029Z" fill="#1D1B1B"/>
</svg>
